<?xml version="1.0" encoding="UTF-8"?> <svg xmlns="http://www.w3.org/2000/svg" xmlns:xlink="http://www.w3.org/1999/xlink" id="Layer_1" version="1.1" viewBox="0 0 675 675"><defs><style> .st0 { fill: url(#linear-gradient2); } .st1 { clip-path: url(#clippath-21); } .st2 { clip-path: url(#clippath-6); } .st3 { clip-path: url(#clippath-7); } .st4 { clip-path: url(#clippath-17); } .st5 { clip-path: url(#clippath-15); } .st6 { clip-path: url(#clippath-18); } .st7 { clip-path: url(#clippath-4); } .st8 { fill: url(#linear-gradient10); } .st9 { clip-path: url(#clippath-22); } .st10 { clip-path: url(#clippath-23); } .st11 { fill: url(#linear-gradient21); } .st12 { clip-path: url(#clippath-9); } .st13 { clip-path: url(#clippath-10); } .st14 { fill: url(#linear-gradient1); } .st15 { clip-path: url(#clippath-25); } .st16 { fill: url(#linear-gradient9); } .st17 { fill: url(#linear-gradient18); } .st18 { fill: #231f20; } .st18, .st19, .st20 { fill-rule: evenodd; } .st21 { fill: url(#linear-gradient23); } .st22 { clip-path: url(#clippath-11); } .st23 { fill: url(#linear-gradient8); } .st24 { fill: url(#linear-gradient11); } .st25 { fill: none; } .st26 { fill: url(#linear-gradient16); } .st27 { clip-path: url(#clippath-1); } .st28 { fill: url(#linear-gradient22); } .st29 { clip-path: url(#clippath-5); } .st30 { clip-path: url(#clippath-20); } .st31 { clip-path: url(#clippath-8); } .st32 { fill: url(#linear-gradient19); } .st33 { fill: url(#linear-gradient12); } .st34 { clip-path: url(#clippath-3); } .st35 { clip-path: url(#clippath-26); } .st36 { fill: url(#linear-gradient7); } .st37 { clip-path: url(#clippath-12); } .st38 { fill: url(#linear-gradient20); } .st39 { fill: url(#linear-gradient4); } .st40 { clip-path: url(#clippath-14); } .st41 { clip-path: url(#clippath-19); } .st42 { fill: url(#linear-gradient14); } .st43 { fill: url(#linear-gradient5); } .st44 { fill: url(#linear-gradient3); } .st45 { display: none; } .st46 { fill: url(#linear-gradient15); } .st47 { fill: url(#linear-gradient17); } .st48 { fill: url(#linear-gradient6); } .st49 { clip-path: url(#clippath-16); } .st50 { clip-path: url(#clippath-2); } .st51 { clip-path: url(#clippath-13); } .st19 { fill: #cea759; } .st52 { fill: url(#linear-gradient13); } .st20 { fill: #b78d50; } .st53 { fill: url(#linear-gradient); } .st54 { clip-path: url(#clippath-24); } .st55 { clip-path: url(#clippath); } </style><clipPath id="clippath"><animateTransform attributeName="transform" begin="0s" dur="20s" type="rotate" repeatCount="indefinite"></animateTransform><path class="st25" d="M321.1,1.3l-13.3,31.1c-6.7.7-13.3,1.5-19.8,2.6l-20.9-26.6-32.5,8.8-4.8,33.3c-6.3,2.4-12.5,4.9-18.6,7.7l-26.9-20.1-29.2,16.9,4,33.3c-5.5,3.9-10.8,8-16.1,12.3l-31.1-12.4-23.8,23.8,12.4,31c-4.3,5.2-8.4,10.6-12.4,16.1l-33.1-3.9-16.8,29.2,19.9,26.7c-2.8,6.2-5.4,12.5-7.8,18.9l-32.9,4.8-8.7,32.5,26.1,20.6c-1.1,6.7-2,13.4-2.6,20.3l-30.6,13.1v33.7s30.6,13.1,30.6,13.1c.7,6.8,1.6,13.6,2.6,20.3l-26.1,20.6,8.7,32.5,32.9,4.8c2.4,6.4,5,12.7,7.8,18.9l-19.9,26.6,16.8,29.2,33.1-3.9c4,5.5,8.1,10.9,12.4,16.1l-12.4,31,23.8,23.8,31.1-12.4c5.2,4.3,10.6,8.4,16,12.3l-4,33.3,29.2,16.8,26.9-20.1c6.1,2.8,12.3,5.3,18.6,7.7l4.8,33.3,32.5,8.7,20.9-26.5c6.5,1.1,13.1,1.9,19.8,2.6l13.3,31.1h33.7s13.4-31.2,13.4-31.2c6.6-.7,13.2-1.5,19.7-2.6l21,26.7,32.5-8.7,4.8-33.7c6.2-2.3,12.2-4.9,18.2-7.6l27.3,20.4,29.2-16.8-4.1-34c5.3-3.8,10.5-7.8,15.5-11.9l31.8,12.8,23.8-23.8-12.8-31.9c4.1-5,8-10.2,11.8-15.4l34.2,4.1,16.8-29.2-20.6-27.5c2.7-5.9,5.1-11.9,7.4-18l34.1-4.8,8.7-32.5-27.1-21.3c1-6.3,1.9-12.7,2.5-19.2l31.7-13.5v-33.7s-31.7-13.5-31.7-13.5c-.6-6.5-1.5-12.9-2.5-19.2l27.2-21.3-8.7-32.5-34.1-4.9c-2.3-6.1-4.8-12.1-7.4-18l20.7-27.5-16.8-29.2-34.1,4.2c-3.8-5.3-7.7-10.4-11.8-15.4l12.8-31.9-23.8-23.9-31.8,12.8c-5-4.1-10.2-8.1-15.5-11.9l4.1-34-29.2-16.9-27.3,20.4c-6-2.7-12.1-5.2-18.2-7.6l-4.8-33.7-32.5-8.7-21,26.7c-6.5-1.1-13-2-19.7-2.6l-13.3-31.2h-33.7Z"></path></clipPath><linearGradient id="linear-gradient" x1="-621.5" y1="-201.8" x2="-620.5" y2="-201.8" gradientTransform="translate(363653.4 118416.2) scale(585)" gradientUnits="userSpaceOnUse"><stop offset="0" stop-color="#3f1b00"></stop><stop offset=".9" stop-color="#9c7447"></stop><stop offset="1" stop-color="#a98051"></stop></linearGradient><clipPath id="clippath-1"><rect class="st25" x="-202.1" y="-132.8" width="1080" height="1080"></rect></clipPath><clipPath id="clippath-2"><path class="st25" d="M65,337.9c0,150.3,122.6,272.9,272.9,272.9s272.9-122.6,272.9-272.9S488.2,65,337.9,65,65,187.6,65,337.9Z"></path></clipPath><linearGradient id="linear-gradient1" x1="-621.2" y1="-202" x2="-620.2" y2="-202" gradientTransform="translate(244207.3 79708.9) scale(392.9)" gradientUnits="userSpaceOnUse"><stop offset="0" stop-color="#ae8a54"></stop><stop offset="1" stop-color="#efcc69"></stop></linearGradient><clipPath id="clippath-3"><rect class="st25" x="-202.1" y="-132.8" width="1080" height="1080"></rect></clipPath><clipPath id="clippath-4"><path class="st25" d="M94.4,337.9c0,134.1,109.4,243.5,243.5,243.5s243.5-109.4,243.5-243.5-109.4-243.6-243.5-243.6-243.5,109.4-243.5,243.6Z"></path></clipPath><linearGradient id="linear-gradient2" x1="-621.1" y1="-202" x2="-620.1" y2="-202" gradientTransform="translate(217973.2 71186.8) scale(350.7)" gradientUnits="userSpaceOnUse"><stop offset="0" stop-color="#ae8a54"></stop><stop offset="1" stop-color="#efcc69"></stop></linearGradient><clipPath id="clippath-5"><path class="st25" d="M168.3,507.5c-93.7-93.7-93.7-245.5,0-339.2,93.7-93.7,245.5-93.7,339.2,0,93.7,93.7,93.7,245.5,0,339.2-45,45-106,70.3-169.6,70.3-63.6,0-124.7-25.2-169.6-70.2M163.1,163.1c-96.6,96.6-96.6,253.1,0,349.7,96.6,96.6,253.1,96.6,349.7,0,96.6-96.6,96.6-253.1,0-349.7-46.4-46.4-109.3-72.4-174.8-72.4-65.6,0-128.5,26-174.8,72.4Z"></path></clipPath><linearGradient id="linear-gradient3" x1="-621.1" y1="-202" x2="-620.1" y2="-202" gradientTransform="translate(221397.8 72292.9) scale(356.2)" gradientUnits="userSpaceOnUse"><stop offset="0" stop-color="#efcc69"></stop><stop offset="1" stop-color="#ae8a54"></stop></linearGradient><clipPath id="clippath-6"><rect class="st25" x="-202.1" y="-132.8" width="1080" height="1080"></rect></clipPath><clipPath id="clippath-7"><path class="st25" d="M500.8,186c-2.1,1.9-5.5,1.2-8.2,2-4.3,1.4-7.9,5.4-10.6,8.9-1.8,2.3-5.9,9.5-7.8,10.8-1.7,1.1-5,.6-8,.1-1.5-.3-3.1-.5-4.6-.5-42.4.5-56.4,53.1-83.2,76-6.5,5.5-13.6,5.7-21.8,6.7-35.4,4.5-74.4,7-109.8,5.9-21.4-.7-64.5-2.9-80.9-17.6-6.5-5.8-3.4-9.8,2-14.7,12.6-11.4,23.9-11.3,38.4-16.8,9.4-3.5,22.6-18,25.1-27.8,0-.4,1.2-4.3-.4-3.6-3.9,5.4-7.8,10.8-13.1,14.9-8.6,6.6-18.8,8.3-28.4,12.7-14.7,6.8-25.6,16.6-34.8,29.8-5.9,8.4-12.2,17.3-4.6,26.6,11,13.5,44.9,18,61.5,19.4,3.9.3,8.3.3,12.2.5.1,0,.3,0,.4,0,.3,0,.3,0,.3.7-.1,2.1-4.1,6-5.6,7.5-11.6,10.7-25.6,12.4-38.7,19.7-12.9,7.1-26,20.5-32.8,33.7-9.9,19.3,8.8,26.8,24,31.7,18,5.8,37.3,7.8,56,8.6,56.8,2.3,114.8-7.2,170.3-18.3,26.2-5.2,52-12.3,78.2-17.4-1.9,5.5-5.3,11.1-5.8,17-1,11.4,1.9,28.7-2,39.2-3.8,10.3-11.8,2.2-17.8,1.7-7.2-.6-13.1,7.3-18,11.3-77.2,62.8-231.4,53.2-217.5-14,.5-2.5,5.8-17.5,4.8-18.4h-1.5s-6.8,20.2-11.5,29.3c-7.6,14.5-23.3,23.7-36.7,32.3.2,1.6.2,2.1,1.8,1.5,3.1-1,6.4-3.4,9.6-4.5,5.2-1.7,8.3-.9,13.4-4.2,6.9-4.5,10.8-14.9,11.8-13.8-2,14,1.4,28.6,12.4,38,26.8,22.8,74.5,24.2,107.5,18,35.2-6.7,73.7-24.4,100.3-48.5,3.7-3.3,12.4-13.7,16-15.2s6.7,0,9.7,1.6c3.6,1.8,6.9,3.6,10.5.5,12.2-10.7,16.3-32.1,17.2-47.4.5-8.5-.3-17.3,1.8-25.7,1.1-.7,2.3-1.2,3.6-1.5,13-3.9,27.3-6.3,39.8-11.7,3.1-1.4,10.5-5.5,7.8-9.8-.7-1.1-5.2-.8-6.6-.8-15.6.9-34.6,6.5-50.3,9.4-63.4,11.7-126.9,24-191.5,27.3-28.4,1.5-58.4,1.4-86.2-4.7-8.6-1.9-33.9-8.4-37.6-16.6-2.7-5.8,7.4-13.5,11.7-16.3,13-8.5,30.8-8.2,42.9-19.1,5.5-4.9,11.9-12.9,13-20.3l21.4.4c69.3-2.2,137.6-14.7,205.2-29.5,18.2-4,41.1-8.2,58.2-15,2.8-1.1,12.6-4.9,11.6-8.8-.8-2.3-5.1-2.7-7.3-2.7-6.8,0-17.2,2.2-24.3,3.3-21.4,3.4-42.7,7.9-64,11.5-14.1,2.4-30.1,5.7-44.2,6.9-.3,0-.7.1-.7-.2,1.5-2,4.1-3.6,5.7-5.4.6-.7,1-1.6,1.7-2.4,15.5-17.5,29.1-47.2,55.6-48.1,1.9,0,3.7.2,5.6.5,3.9.6,7.7,1.2,11.2-1.4,8.2-6.1,12.9-20.7,20.6-27.4,2.9-2.5,4.8-2.1,6.7-1.8,1.2.3,2.5.4,3.8,0,3.9-1,12.3-15.2,11.6-19.1-.2-.7-.6-1.2-1.1-1.6-1,0-3.6,5.8-4.6,6.8h0Z"></path></clipPath><linearGradient id="linear-gradient4" x1="-621.2" y1="-201.8" x2="-620.2" y2="-201.8" gradientTransform="translate(241340.8 78682.6) scale(388.2)" gradientUnits="userSpaceOnUse"><stop offset="0" stop-color="#3c1601"></stop><stop offset=".9" stop-color="#997043"></stop><stop offset="1" stop-color="#a77d4d"></stop></linearGradient><clipPath id="clippath-8"><path class="st25" d="M383.3,137.6c-16.4,13.2-34.4,25.4-50.4,39.1-11.9,10.3-24.6,24-30,38.2-2.1,5.3-.6,5.5,1.6,6.3,1.2.4,6.4,2.1,9.6,9.7,8.3,19.8-34.9,26.3-31.6,2.5.3-2.3,3-8.2,2.5-10-.1-.5-.7-.8-1.1-1.2-1.3,0-8.2,16.5-9.5,18.9-10.9,19.5-21,21.4-38.3,32.2-1.1.7-5.2,2.9-4.8,4.2l1.4.5c4.7-1.3,13.6-6.4,18.3-5.6,1.1.2,2,1.2,2.8,1.3,1.3.2,7-4.4,8.1-5.5,2.1-2.4,4-4.9,5.8-7.6,1.2-1.7,2.1-4.5,4.1-5.4l.8,6c4.1,15.1,19.7,16.5,30.6,6.9,7.3-6.4,17.8-25.6,18.5-35.3.8-9.3-4.5-18-13.1-21.5l.2-1.8c11.5-13.3,26-24.7,39.8-35.7,12.5-10,29.9-20.2,38.2-33.7.8-1.2,4.6-6.9,3.6-7.9,0,0-.1,0-.2,0-1.3,0-6,4.8-6.8,5.5h0Z"></path></clipPath><linearGradient id="linear-gradient5" x1="-621.2" y1="-201.8" x2="-620.2" y2="-201.8" gradientTransform="translate(241241.6 78562.8) scale(388.2)" gradientUnits="userSpaceOnUse"><stop offset="0" stop-color="#3c1601"></stop><stop offset=".1" stop-color="#3c1601"></stop><stop offset=".9" stop-color="#997043"></stop><stop offset="1" stop-color="#a77d4d"></stop></linearGradient><clipPath id="clippath-9"><path class="st25" d="M536,387.6c-1.3,3-6.6,19.2-6.4,21.5.3,4.1,2,7.5,1.1,12.1-.5,2.3-6.4,10-8.4,11.5-.4.3-.6.9-1.3.7.8-8-10.6-20.6-17.3-12.1-1.6,2-9.3,19-9.7,21.5-1.8,10.4,9.2,12.7,17.1,10.1.5.5-4,5.5-4.7,6.2-8,8-19.5,14.3-28.7,20.8-1.4,1-5.5,3.1-3.4,4.7,6.1-1.7,20.5-11.5,26.2-10.9,1.4.2,1.7,1.3,3.4.8,3.5-1.1,9.5-12.5,11.2-15.9,2.2-4.4,4-10.5,6.3-14.5,2.8-5,8.3-10.5,11.6-16,8.8-14.7,8.7-23.7,7-40.4-.3-2.5-.8-3.5-1.4-3.5s-1.7,1.5-2.6,3.6h0Z"></path></clipPath><linearGradient id="linear-gradient6" x1="-621.2" y1="-201.8" x2="-620.2" y2="-201.8" gradientTransform="translate(241431.8 78779.4) scale(388.2)" gradientUnits="userSpaceOnUse"><stop offset="0" stop-color="#3c1601"></stop><stop offset=".9" stop-color="#997043"></stop><stop offset="1" stop-color="#a77d4d"></stop></linearGradient><clipPath id="clippath-10"><path class="st25" d="M398,136.9c-8.2,20.8-11,44.2-11.8,66.5-.3,8-1.1,21.5,5.9,26.7,12.8,9.5,23.5-17,21.5-26.9-.6-2.7-2.7-5.4-5.7-5.2-.9.6-3,6.6-3.9,7.9-1.2,1.9-5.1-1-6.3-2.2-3.6-4.1-3.2-14.8-3-20.1.5-8.9,1.4-17.8,2.8-26.6,1-7.2,3.8-16.8,4-23.6,0-.9.2-1.8-.7-2.5-.6,0-2.6,5.2-3,6.1h0Z"></path></clipPath><linearGradient id="linear-gradient7" x1="-621.2" y1="-201.8" x2="-620.2" y2="-201.8" gradientTransform="translate(241312.5 78522.6) scale(388.2)" gradientUnits="userSpaceOnUse"><stop offset="0" stop-color="#3c1601"></stop><stop offset=".2" stop-color="#3c1601"></stop><stop offset=".2" stop-color="#462008"></stop><stop offset=".5" stop-color="#704826"></stop><stop offset=".7" stop-color="#8e653b"></stop><stop offset=".9" stop-color="#a07748"></stop><stop offset="1" stop-color="#a77d4d"></stop></linearGradient><clipPath id="clippath-11"><path class="st25" d="M416.1,522.6c-1.4.2-.7-1.7-1.6-3.2-3.4-5.4-12.7-6-18.3-7.1-1.4,7-5,15-6.1,22-.2,1.3-.3,2.7-.2,4.1,5.5.9,11,1.7,16.1,4,1.8.3,2.8-2,3.7-3.4,2.1-3.8,3.8-7.7,5.1-11.8,2.3-.4,5.7.6,9.1,1.6,4.4,1.3,8.8,2.5,11.2.8,2-1.5,5.3-10.1,5.8-12.8,2.3-12.6-8.2-13.9-18-15.3l-6.8,21Z"></path></clipPath><linearGradient id="linear-gradient8" x1="-621.2" y1="-201.8" x2="-620.2" y2="-201.8" gradientTransform="translate(241467.2 78860.7) scale(388.2)" gradientUnits="userSpaceOnUse"><stop offset="0" stop-color="#3c1601"></stop><stop offset=".9" stop-color="#997043"></stop><stop offset="1" stop-color="#a77d4d"></stop></linearGradient><clipPath id="clippath-12"><path class="st25" d="M401.3,330l-1.1-.3c1-5-14.4-12.2-16.6-10.9l-12.3,21.6c2.9.7,5.6,1.9,8.2,3.4,3.1,1.7,5.7,5.1,9.7,4.3,1.8-.4,7.5-7.1,8.8-8.9.7-1,1.4-3.5,2-4.1,2-2,10.4,2.9,12.5,4.2,1.8,1.1,3.5,3.6,5.8,2.6,2.5-1.1,8.3-10.5,9.4-13.2,4.5-11.7-5.3-15.1-14.8-16.7l-11.4,18Z"></path></clipPath><linearGradient id="linear-gradient9" x1="-621.2" y1="-201.8" x2="-620.2" y2="-201.8" gradientTransform="translate(241644.5 78762.2) scale(388.7)" gradientUnits="userSpaceOnUse"><stop offset="0" stop-color="#3c1601"></stop><stop offset=".9" stop-color="#997043"></stop><stop offset="1" stop-color="#a77d4d"></stop></linearGradient><clipPath id="clippath-13"><path class="st25" d="M524.1,317c-2.4,3.7-4.8,9.8-7.1,12.8-.4.5-.5.9-1.3.8,0-5.7-7.6-9.3-12.2-11.1-1.2-.5-3.4-1.5-4.5-.9-3.3,6.1-7.8,11.9-10.9,18-.7,1.4-1.4,2.2-.8,3.9.4-.2.8-.2,1.2,0,4.1,1.7,6.8,3.8,10.9,5.4.7.3,1.2,1,1.9,1.2,4.1,1.3,6.1-1.6,8.4-4.3,2.1-2.2,3.7-4.8,4.8-7.6.9-.5,6.6,1.6,7.9,2.2,2.6,1.1,6.6,4.2,8.8,4.8,2.2.6,3.7-1.8,5-3.2,2.9-3.2,7.3-10,7.2-14.5,0-6.6-9.9-11.5-15.5-12.4-.8.2-3,4-3.7,5h0Z"></path></clipPath><linearGradient id="linear-gradient10" x1="-621.2" y1="-201.8" x2="-620.2" y2="-201.8" gradientTransform="translate(241367.5 78670.9) scale(388.2)" gradientUnits="userSpaceOnUse"><stop offset="0" stop-color="#3c1601"></stop><stop offset=".9" stop-color="#997043"></stop><stop offset="1" stop-color="#a77d4d"></stop></linearGradient><clipPath id="clippath-14"><path class="st25" d="M374.7,232.6c-1.4,1.2-3.1,5.8-5,7.6-5.9,5.7-9.2-.2-14.9-.8-12.6-1.4-27.7,17.3-31.8,27.8-.6,1.5-1.3,2.5-.5,4.2,5.6-3.2,8.8-8.6,16.1-9,2.5,0,5,.5,7.2,1.6,3,1.3,5.9,2.5,10.4.7,7.6-3.1,16.9-18.3,19.2-26,.2-.9,1.7-6.6.2-6.6-.3,0-.7.2-.9.4h0Z"></path></clipPath><linearGradient id="linear-gradient11" x1="-621.2" y1="-201.8" x2="-620.2" y2="-201.8" gradientTransform="translate(241279.9 78593.7) scale(388.2)" gradientUnits="userSpaceOnUse"><stop offset="0" stop-color="#3c1601"></stop><stop offset=".9" stop-color="#997043"></stop><stop offset="1" stop-color="#a77d4d"></stop></linearGradient><clipPath id="clippath-15"><path class="st25" d="M330.8,321.8c-.6.6-1.9,3.8-2.9,5-4.5,5.5-12.8,7.9-18,13.6-7.2,8-8.2,19.2-16.5,26.5-6.7,5.9-16,9.6-23.2,14.7-1.3.9-8.6,6-3.9,6.5,5.4.7,18.8-3.1,23.9-5.5,10.8-5.2,11.7-20.5,18.4-29.1,4.6-5.9,12.1-5.8,17.1-12.8,2.1-2.9,8.2-14.8,7.7-17.9-.2-.9-.7-1.6-1.4-1.6-.4,0-.8.2-1.1.5h0Z"></path></clipPath><linearGradient id="linear-gradient12" x1="-621.2" y1="-201.8" x2="-620.2" y2="-201.8" gradientTransform="translate(241333.8 78701.3) scale(388.2)" gradientUnits="userSpaceOnUse"><stop offset="0" stop-color="#3c1601"></stop><stop offset=".9" stop-color="#997043"></stop><stop offset="1" stop-color="#a77d4d"></stop></linearGradient><clipPath id="clippath-16"><path class="st25" d="M271.7,139.4c-2.5,6.7-6.2,13-8.9,19.6-5.8,14-4.2,30.7-5.8,45.8-.9,8.8-3.1,17.4-5,26,6.9-5.9,10.8-16.6,13-25.2,3.9-15,3-30.7,4.7-46,.8-7,2.6-13.7,3.6-20.6l-1.6.5Z"></path></clipPath><linearGradient id="linear-gradient13" x1="-621.2" y1="-201.8" x2="-620.2" y2="-201.8" gradientTransform="translate(241217.8 78524.6) scale(388.2)" gradientUnits="userSpaceOnUse"><stop offset="0" stop-color="#3c1601"></stop><stop offset=".1" stop-color="#3c1601"></stop><stop offset=".9" stop-color="#997043"></stop><stop offset="1" stop-color="#a77d4d"></stop></linearGradient><clipPath id="clippath-17"><path class="st25" d="M291.2,161.7c.1,1.5,2.4,1.4,3.5,2,4.6,2,9.5,6.4,13.4,7.9,4.7,1.8,9.6-6,11.3-9.7,6-12.5-4.4-18.7-14.8-22l-13.4,21.8Z"></path></clipPath><linearGradient id="linear-gradient14" x1="-621.2" y1="-201.8" x2="-620.2" y2="-201.8" gradientTransform="translate(241210.2 78495.8) scale(388.2)" gradientUnits="userSpaceOnUse"><stop offset="0" stop-color="#3c1601"></stop><stop offset=".3" stop-color="#3c1601"></stop><stop offset=".9" stop-color="#997043"></stop><stop offset="1" stop-color="#a77d4d"></stop></linearGradient><clipPath id="clippath-18"><path class="st25" d="M334.6,352c-1.2.4-10.6,19.6-11.6,22.3.2,1.9,4.8,2.7,6.5,3.5,3.6,1.7,6.8,4,10.4,5.7,7.1-4.3,14.1-17.3,8.2-24.7-1.7-2.1-9.6-6.9-12.8-6.9-.2,0-.4,0-.7,0h0Z"></path></clipPath><linearGradient id="linear-gradient15" x1="-621.2" y1="-201.8" x2="-620.2" y2="-201.8" gradientTransform="translate(241351 78707.1) scale(388.2)" gradientUnits="userSpaceOnUse"><stop offset="0" stop-color="#3c1601"></stop><stop offset=".9" stop-color="#997043"></stop><stop offset="1" stop-color="#a77d4d"></stop></linearGradient><clipPath id="clippath-19"><path class="st25" d="M262.9,321.5c-1.9,2.7-9.7,18.7-10.6,22-.5,2.1-.9,4.3-1.2,6.5-1.8,12.4-1.9,23.8-5.6,36-.6,1.9-2,3.7-1.7,5.8.9.2,1.3-.6,1.8-1.1,12.9-14.1,13.4-34.1,16.4-51.9,1.1-6.2,2.6-12.3,3.9-18.4-.4-.2-.8-.3-1.2-.3-.8,0-1.2.6-1.8,1.5Z"></path></clipPath><linearGradient id="linear-gradient16" x1="-621.2" y1="-201.8" x2="-620.2" y2="-201.8" gradientTransform="translate(241324.8 78695.7) scale(388.2)" gradientUnits="userSpaceOnUse"><stop offset="0" stop-color="#3c1601"></stop><stop offset=".9" stop-color="#997043"></stop><stop offset="1" stop-color="#a77d4d"></stop></linearGradient><clipPath id="clippath-20"><path class="st25" d="M242.8,167c-2.4,2.3-5.2,7.7-7.5,10.6-10.4,12.9-24,21.9-38.1,30.2-1.2.7-5.1,2.2-5.7,2.9-.5.4-.6,1-.5,1.6,1.2,1.1,16.4-6.9,19.4-7.5,1.2-.2,2.4-.2,3.5,0,.7.1,1.4.2,2.1.2,9.7-.4,24.7-26.6,27.9-34.9.6-1.2.9-2.6.8-3.9h-.2c-.7,0-1.3.4-1.8.9h0Z"></path></clipPath><linearGradient id="linear-gradient17" x1="-621.2" y1="-201.8" x2="-620.2" y2="-201.8" gradientTransform="translate(241210.9 78535) scale(388.2)" gradientUnits="userSpaceOnUse"><stop offset="0" stop-color="#3c1601"></stop><stop offset=".9" stop-color="#997043"></stop><stop offset="1" stop-color="#a77d4d"></stop></linearGradient><clipPath id="clippath-21"><path class="st25" d="M343.1,161.6c-.6.7-4.4,5.3-3.8,5.9.3.3,2.5-1.5,2.9-1.8,6.8-5.5,15.3-11.2,21.5-16.9,2.3-1.9,4-4.4,5-7.2l-1.1-.7c-8.3,6.3-17.5,12.8-24.4,20.8h0Z"></path></clipPath><linearGradient id="linear-gradient18" x1="-621.2" y1="-201.8" x2="-620.2" y2="-201.8" gradientTransform="translate(241218.7 78494.3) scale(388.2)" gradientUnits="userSpaceOnUse"><stop offset="0" stop-color="#3c1601"></stop><stop offset=".9" stop-color="#997043"></stop><stop offset="1" stop-color="#a77d4d"></stop></linearGradient><clipPath id="clippath-22"><path class="st25" d="M326.9,428.5c-.9,0-1.7.5-2.3,1.1-1.8,1.8-3.1,3.9-3.9,6.3-.2.5-.4,1-.6,1.5-.9-.1-1.7-.6-2.1-1.4-.6-.8-1.2-1.7-1.8-2.5-.3-.4-.6-.8-1.1-1.4-.9,1.6-1.5,3-2.3,4.3-.5.9-.5,2,.1,2.9,1.1,1.8,2.1,3.6,3,5.5,2.1,4.8,3.5,9.8,4.1,15,0,.5.2,1,.3,1.5h.2c.1-.3.3-.7.3-1,.9-5.3.3-10.6-.6-15.9,2.8-.6,5.3-2.1,7.2-4.2,2.1-2.3,3.7-5.7,3.4-7.5-.2.3-.3.6-.5.8-.9,1.2-1.8,2.3-2.8,3.4s-2,.7-3,.3c-.9-.3-1.6-1.2-1.7-2.2,0-1.4.8-2.7,2.2-3.2,1-.4,2.1-.5,3.2-.3.5,0,1.2,0,1.4-.5.2-.6,0-1.3-.6-1.7-.6-.5-1.3-.7-2-.7h-.2Z"></path></clipPath><linearGradient id="linear-gradient19" x1="-621.2" y1="-201.8" x2="-620.2" y2="-201.8" gradientTransform="translate(241396.7 78783.8) scale(388.2)" gradientUnits="userSpaceOnUse"><stop offset="0" stop-color="#3c1601"></stop><stop offset=".9" stop-color="#997043"></stop><stop offset="1" stop-color="#a77d4d"></stop></linearGradient><clipPath id="clippath-23"><path class="st25" d="M271.4,438.9c-.5.9-.5,2,.2,2.8,3,4.7,5,9.8,6.1,15.2.5,2.2.9,4.5,1.3,6.8,3-4.8-.6-24.5-5.4-29-.8,1.4-1.5,2.8-2.2,4.2Z"></path></clipPath><linearGradient id="linear-gradient20" x1="-621.2" y1="-201.8" x2="-620.2" y2="-201.8" gradientTransform="translate(241389.3 78789.2) scale(388.2)" gradientUnits="userSpaceOnUse"><stop offset="0" stop-color="#3c1601"></stop><stop offset=".9" stop-color="#997043"></stop><stop offset="1" stop-color="#a77d4d"></stop></linearGradient><clipPath id="clippath-24"><path class="st25" d="M299.2,431c-.9,0-1.7.5-2.3,1.1-1.8,1.8-3.1,3.9-3.9,6.3l-.6,1.5c-.9-.1-1.6-.6-2.1-1.4-.6-.8-1.2-1.7-1.8-2.5-.3-.4-.6-.8-1.1-1.4-.8,1.6-1.5,3-2.3,4.2-.6.9-.5,2,.1,2.9,1.1,1.8,2.1,3.6,3,5.5,2.1,4.8,3.5,9.8,4.1,15,0,.5.2,1,.3,1.5h.2c.1-.3.3-.6.4-.9.9-5.3.4-10.6-.6-15.9,2.8-.6,5.3-2.1,7.2-4.2,2.1-2.3,3.6-5.7,3.4-7.5-.2.3-.3.5-.5.8-.9,1.2-1.8,2.3-2.8,3.4s-2,.7-3,.3c-1-.3-1.6-1.2-1.6-2.3,0-1.4.8-2.7,2.2-3.2,1-.4,2.1-.5,3.2-.3.5,0,1.2,0,1.4-.5.2-.6,0-1.3-.6-1.7-.6-.5-1.3-.7-2-.7h-.3Z"></path></clipPath><linearGradient id="linear-gradient21" x1="-621.2" y1="-201.8" x2="-620.2" y2="-201.8" gradientTransform="translate(241391.9 78786.3) scale(388.2)" gradientUnits="userSpaceOnUse"><stop offset="0" stop-color="#3c1601"></stop><stop offset=".9" stop-color="#997043"></stop><stop offset="1" stop-color="#a77d4d"></stop></linearGradient><clipPath id="clippath-25"><path class="st25" d="M347.1,432.8c-.8,2.4-1.7,4.8-2.5,7.2-.1.4-.2.9-.3,1.3-.4,3-.8,6.1-1,9.1-.2,3.8-.3,7.7-.4,11.5,0,2.1.5,4.1,1.6,5.9,1.2,2.1,3.7,3.2,6.1,2.6,1.4-.4,2.6-1.2,3.4-2.4.8-.9,1.5-1.8,2.2-2.8.5-.7,1.3-1.1,2.2-.9,2.2.5,3.8-.4,5.1-1.9.7-.8,1.2-1.7,1.9-2.5.2-.4.6-.6,1-.8,1.2-.3,2.1-1.2,2.5-2.3.9-1.9,1.4-4,1.5-6.1,0-.2,0-.5,0-.7h-.3c-.2.7-.4,1.4-.7,2.2-.6,1.9-1.1,2.2-3,1.8-.2.4-.4.8-.6,1.1-.6,1-1.2,1.9-1.9,2.8-.5.7-1.4.9-2.1.6-1.5-.6-3.2,0-4.3,1.2-.5.5-.9.9-1.4,1.3-1.8,1.6-4.3,2.1-6.5,1.3-2.2-.8-3.1-2.7-3.4-4.8-.2-1-.2-2.1-.2-3.1.2-3.5.4-7.1.7-10.6.3-3.1.7-6.3,1.1-9.4,0-.6,0-1.2,0-1.8l-.3-.2c0,.1,0,.3-.1.4h-.1Z"></path></clipPath><linearGradient id="linear-gradient22" x1="-621.2" y1="-201.8" x2="-620.2" y2="-201.8" gradientTransform="translate(241408.7 78787.7) scale(388.2)" gradientUnits="userSpaceOnUse"><stop offset="0" stop-color="#3c1601"></stop><stop offset=".9" stop-color="#997043"></stop><stop offset="1" stop-color="#a77d4d"></stop></linearGradient><clipPath id="clippath-26"><path class="st25" d="M335.3,425.2c-.5,1.2-.9,2.5-1.2,3.8-.4,2.9-.6,5.9-.4,8.8.2,6.8.4,13.7.4,20.5,0,3.9-.6,7.8-2,11.4-3.1,8.2-11.2,13.5-20,13-5-.3-8.4-3.4-9.1-8.3-.4-3.2.1-6.5,1.4-9.5.8-2.1,1.7-4.1,2.9-5.9,1-1.6,2.4-3,3.3-4.7.7-1.2.3-2.7-.9-3.4,0,0,0,0,0,0-.7-.5-1.5-.9-2.3-1.3l-4.1,5.1c1.4.5,2.7,1.3,3.7,2.4-.3.5-.5.9-.8,1.3-2.2,3.6-3.9,7.5-5.2,11.6-1.2,3.6-1.6,7.5-1,11.2.8,4.7,3.8,8.2,8.1,9.2,1.9.4,3.9.4,5.9,0,4.4-.9,8.3-3.2,11.3-6.5,3.7-4,6.6-8.7,8.3-13.8,1.9-5.6,3-11.5,3-17.4.1-7,0-14.1,0-21.2-.1-3.4.3-6.8,1.1-10.1.3-.6.3-1.4-.2-2-.9,2-1.8,3.8-2.6,5.8h0Z"></path></clipPath><linearGradient id="linear-gradient23" x1="-621.2" y1="-201.8" x2="-620.2" y2="-201.8" gradientTransform="translate(241402.4 78800.7) scale(388.2)" gradientUnits="userSpaceOnUse"><stop offset="0" stop-color="#3c1601"></stop><stop offset=".9" stop-color="#997043"></stop><stop offset="1" stop-color="#a77d4d"></stop></linearGradient></defs><g id="Layer_2"><g id="Layer_1-2"><g class="st55"><rect class="st53" x="-135.9" y="-141.1" width="955.8" height="955.8" transform="translate(-137.4 313.4) rotate(-41.8)"></rect></g><g class="st45"><g class="st27"><path class="st18" d="M336.4,615c150.3,0,272.9-122.6,272.9-272.9S486.7,69.3,336.4,69.3,63.6,191.9,63.6,342.2s122.6,272.8,272.9,272.8"></path></g></g><g class="st50"><rect class="st14" x="-20.4" y="-20.4" width="716.6" height="716.6" transform="translate(-105.8 160.4) rotate(-23.2)"></rect></g><g class="st34"><path class="st19" d="M337.9,605.7c147.5,0,267.8-120.3,267.8-267.8S485.4,70.1,337.9,70.1,70.1,190.4,70.1,337.9s120.3,267.8,267.8,267.8"></path></g><g class="st7"><rect class="st0" x="18.1" y="18.1" width="639.6" height="639.6" transform="translate(-105.8 160.4) rotate(-23.2)"></rect></g><g class="st29"><rect class="st44" x="13.2" y="13.2" width="649.3" height="649.3" transform="translate(-105.8 160.4) rotate(-23.2)"></rect></g><g class="st2"><g><path class="st20" d="M340.5,74.2v11.8c0,.8-.7,1.5-1.5,1.5h-2.2c-.8,0-1.5-.7-1.5-1.5v-11.8c0-.8.7-1.5,1.5-1.5h2.2c.8,0,1.5.7,1.5,1.5"></path><path class="st20" d="M357.8,74.9l-.8,11.8c0,.8-.8,1.4-1.6,1.4,0,0,0,0,0,0h-2.2c-.8-.2-1.4-.9-1.4-1.7l.8-11.8c0-.8.8-1.4,1.6-1.4,0,0,0,0,0,0h2.2c.8.2,1.4.9,1.4,1.7,0,0,0,0,0,0"></path><path class="st20" d="M374.9,76.8l-1.5,11.7c-.1.8-.9,1.4-1.7,1.3l-2.2-.3c-.8-.1-1.4-.9-1.3-1.7l1.5-11.7c.1-.8.9-1.4,1.7-1.3l2.2.3c.8.1,1.4.9,1.3,1.7"></path><path class="st20" d="M392,79.8l-2.3,11.6c-.2.8-.9,1.3-1.8,1.2,0,0,0,0,0,0l-2.2-.4c-.8-.2-1.3-.9-1.2-1.8l2.3-11.6c.2-.8,1-1.3,1.8-1.2l2.2.4c.8.2,1.3,1,1.2,1.8"></path><path class="st20" d="M408.8,83.9l-3.1,11.4c-.2.8-1,1.3-1.8,1.1l-2.1-.6c-.8-.2-1.3-1-1.1-1.8,0,0,0,0,0,0l3.1-11.4c.2-.8,1-1.3,1.8-1.1,0,0,0,0,0,0l2.1.6c.8.2,1.3,1,1.1,1.8"></path><path class="st20" d="M425.2,89l-3.8,11.1c-.3.8-1.1,1.2-1.9.9l-2.1-.7c-.8-.3-1.2-1.1-.9-1.9,0,0,0,0,0,0l3.8-11.2c.3-.8,1.1-1.2,1.9-.9l2.1.7c.8.3,1.2,1.1.9,1.9,0,0,0,0,0,0"></path><path class="st20" d="M441.4,95.3l-4.5,10.9c-.3.8-1.2,1.1-2,.8l-2-.9c-.8-.3-1.1-1.2-.8-1.9l4.5-10.9c.3-.8,1.2-1.1,1.9-.8,0,0,0,0,0,0l2,.8c.8.3,1.1,1.2.8,1.9,0,0,0,0,0,0"></path><path class="st20" d="M457,102.6l-5.2,10.6c-.4.7-1.3,1-2,.7l-2-1c-.7-.4-1-1.3-.7-2l5.2-10.6c.4-.7,1.3-1,2-.7l2,1c.7.4,1,1.3.7,2"></path><path class="st20" d="M472.2,110.9l-5.9,10.2c-.4.7-1.3.9-2,.6l-1.9-1.1c-.7-.4-.9-1.3-.5-2l5.9-10.2c.4-.7,1.3-.9,2-.6l1.9,1.1c.7.4.9,1.3.5,2"></path><path class="st20" d="M486.7,120.2l-6.6,9.8c-.5.7-1.4.9-2.1.4l-1.8-1.2c-.7-.5-.9-1.4-.4-2.1l6.6-9.8c.5-.7,1.4-.9,2.1-.4l1.8,1.2c.7.5.9,1.4.4,2.1h0"></path><path class="st20" d="M500.7,130.4l-7.2,9.4c-.5.7-1.4.8-2.1.3,0,0,0,0,0,0l-1.8-1.3c-.7-.5-.8-1.4-.3-2.1l7.2-9.4c.5-.7,1.4-.8,2.1-.3l1.8,1.4c.7.5.8,1.4.3,2.1,0,0,0,0,0,0"></path><path class="st20" d="M513.9,141.5l-7.8,8.9c-.5.6-1.5.7-2.1.1l-1.7-1.5c-.6-.5-.7-1.5-.1-2.1l7.8-8.9c.5-.6,1.5-.7,2.1-.1l1.7,1.5c.6.5.7,1.5.1,2.1h0"></path><path class="st20" d="M526.4,153.4l-8.4,8.4c-.6.6-1.5.6-2.1,0l-1.6-1.6c-.6-.6-.6-1.5,0-2.1l8.4-8.4c.6-.6,1.5-.6,2.1,0l1.6,1.6c.6.6.6,1.5,0,2.1"></path><path class="st20" d="M538.1,166.2l-8.9,7.8c-.6.5-1.6.5-2.1-.1l-1.5-1.6c-.5-.6-.5-1.6.1-2.1l8.9-7.8c.6-.5,1.6-.5,2.1.1l1.5,1.7c.5.6.5,1.6-.2,2.1"></path><path class="st20" d="M548.9,179.7l-9.4,7.2c-.7.5-1.6.4-2.1-.3l-1.3-1.8c-.5-.7-.4-1.6.3-2.1,0,0,0,0,0,0l9.4-7.2c.6-.5,1.6-.4,2.1.3,0,0,0,0,0,0l1.3,1.8c.5.7.4,1.6-.3,2.1,0,0,0,0,0,0"></path><path class="st20" d="M558.8,193.8l-9.8,6.6c-.7.5-1.6.3-2.1-.4,0,0,0,0,0,0l-1.2-1.8c-.5-.7-.3-1.6.4-2.1l9.8-6.5c.7-.5,1.6-.3,2.1.4l1.2,1.8c.5.7.3,1.6-.4,2.1,0,0,0,0,0,0"></path><path class="st20" d="M567.8,208.6l-10.2,5.9c-.7.4-1.6.1-2-.5l-1.1-1.9c-.4-.7-.1-1.6.5-2l10.2-5.9c.7-.4,1.6-.1,2,.5l1.1,1.9c.4.7.1,1.6-.5,2"></path><path class="st20" d="M575.8,223.9l-10.6,5.3c-.7.4-1.6,0-2-.7h0s-1-2-1-2c-.4-.7,0-1.6.7-2l10.6-5.2c.7-.4,1.6,0,2,.7,0,0,0,0,0,0l1,2c.4.7,0,1.6-.7,2"></path><path class="st20" d="M582.7,239.8l-10.9,4.5c-.8.3-1.6,0-2-.8l-.8-2c-.3-.8,0-1.6.8-1.9,0,0,0,0,0,0l10.9-4.5c.8-.3,1.6,0,1.9.8,0,0,0,0,0,0l.8,2c.3.8,0,1.6-.8,1.9,0,0,0,0,0,0"></path><path class="st20" d="M588.6,256l-11.2,3.8c-.8.3-1.6-.1-1.9-.9,0,0,0,0,0,0l-.7-2.1c-.3-.8.2-1.6.9-1.9l11.2-3.8c.8-.3,1.6.2,1.9.9l.7,2.1c.3.8-.1,1.6-.9,1.9,0,0,0,0,0,0"></path><path class="st20" d="M593.5,272.6l-11.4,3c-.8.2-1.6-.3-1.8-1.1l-.6-2.1c-.2-.8.3-1.6,1.1-1.8l11.4-3c.8-.2,1.6.3,1.8,1.1l.6,2.1c.2.8-.3,1.6-1.1,1.8"></path><path class="st20" d="M597.2,289.5l-11.6,2.3c-.8.1-1.5-.4-1.7-1.2l-.4-2.2c-.2-.8.4-1.6,1.2-1.8l11.6-2.3c.8-.2,1.6.4,1.8,1.2l.4,2.2c.2.8-.4,1.6-1.2,1.8"></path><path class="st20" d="M599.8,306.6l-11.7,1.5c-.8.1-1.6-.5-1.7-1.3l-.3-2.2c-.1-.8.5-1.6,1.3-1.7l11.7-1.5c.8-.1,1.6.5,1.7,1.3l.3,2.2c.1.8-.5,1.6-1.3,1.7"></path><path class="st20" d="M601.3,323.8l-11.8.8c-.8,0-1.5-.5-1.6-1.4v-2.2c-.2-.8.4-1.5,1.2-1.6l11.8-.8c.8,0,1.5.6,1.6,1.4v2.2c.2.8-.4,1.5-1.2,1.6,0,0,0,0,0,0"></path><path class="st20" d="M601.7,341.1h-11.8c-.8,0-1.5-.7-1.5-1.5v-2.2c0-.8.7-1.5,1.5-1.5,0,0,0,0,0,0h11.8c.8,0,1.5.7,1.5,1.5v2.2c0,.8-.7,1.5-1.5,1.5h0"></path><path class="st20" d="M600.9,358.3l-11.8-.8c-.8,0-1.4-.8-1.4-1.6l.2-2.2c0-.8.8-1.4,1.6-1.4l11.8.8c.8,0,1.4.8,1.4,1.6,0,0,0,0,0,0l-.2,2.2c0,.8-.8,1.4-1.6,1.4,0,0,0,0,0,0"></path><path class="st20" d="M599,375.5l-11.7-1.6c-.8-.1-1.4-.9-1.3-1.7l.3-2.2c.1-.8.9-1.4,1.7-1.3l11.7,1.6c.8.1,1.4.9,1.3,1.7l-.3,2.2c-.1.8-.9,1.4-1.7,1.3"></path><path class="st20" d="M596,392.5l-11.6-2.3c-.8-.2-1.3-.9-1.2-1.8l.4-2.2c.2-.8.9-1.3,1.8-1.2,0,0,0,0,0,0l11.6,2.3c.8.2,1.3.9,1.2,1.8,0,0,0,0,0,0l-.4,2.2c-.2.8-1,1.3-1.8,1.2"></path><path class="st20" d="M591.8,409.3l-11.4-3.1c-.8-.2-1.2-1-1-1.8l.6-2.1c.2-.8,1-1.2,1.8-1l11.4,3.1c.8.2,1.3,1,1,1.8l-.6,2.1c-.2.8-1,1.3-1.8,1"></path><path class="st20" d="M586.6,425.8l-11.2-3.8c-.8-.3-1.2-1.1-.9-1.9l.7-2.1c.3-.8,1.1-1.2,1.9-.9,0,0,0,0,0,0l11.2,3.8c.8.3,1.2,1.1.9,1.9,0,0,0,0,0,0l-.7,2.1c-.3.8-1.1,1.2-1.9.9"></path><path class="st20" d="M580.3,441.8l-10.9-4.5c-.8-.3-1.1-1.2-.8-1.9,0,0,0,0,0,0l.8-2c.3-.8,1.2-1.1,2-.8l10.9,4.6c.8.3,1.1,1.2.8,1.9,0,0,0,0,0,0l-.8,2c-.3.8-1.2,1.1-1.9.8,0,0,0,0,0,0"></path><path class="st20" d="M573,457.5l-10.6-5.2c-.7-.4-1-1.3-.7-2l1-2c.4-.7,1.3-1,2-.7l10.6,5.3c.7.4,1,1.2.7,2,0,0,0,0,0,0l-1,2c-.4.7-1.2,1-2,.7,0,0,0,0,0,0"></path><path class="st20" d="M564.7,472.6l-10.2-5.9c-.7-.4-.9-1.3-.5-2l1.1-1.9c.4-.7,1.3-.9,2-.5l10.3,5.9c.7.4.9,1.3.5,2l-1.1,1.9c-.4.7-1.3.9-2,.5"></path><path class="st20" d="M555.4,487.2l-9.8-6.6c-.7-.5-.9-1.4-.4-2.1,0,0,0,0,0,0l1.2-1.8c.5-.7,1.4-.9,2.1-.4l9.8,6.6c.7.5.9,1.4.4,2.1,0,0,0,0,0,0l-1.2,1.8c-.5.7-1.4.9-2.1.4,0,0,0,0,0,0"></path><path class="st20" d="M545.1,501.1l-9.3-7.2c-.7-.5-.8-1.4-.3-2.1,0,0,0,0,0,0l1.3-1.8c.5-.7,1.4-.8,2.1-.3,0,0,0,0,0,0l9.4,7.2c.7.5.8,1.4.3,2.1,0,0,0,0,0,0l-1.3,1.8c-.5.7-1.4.8-2.1.3"></path><path class="st20" d="M534,514.3l-8.9-7.8c-.6-.5-.7-1.5-.1-2.1,0,0,0,0,0,0l1.5-1.7c.5-.6,1.5-.7,2.1-.1,0,0,0,0,0,0l8.9,7.8c.6.5.7,1.5.1,2.1,0,0,0,0,0,0l-1.5,1.6c-.5.6-1.5.7-2.1.1,0,0,0,0,0,0"></path><path class="st20" d="M522,526.8l-8.3-8.4c-.6-.6-.6-1.5,0-2.1l1.6-1.6c.6-.6,1.5-.6,2.1,0h0s8.3,8.4,8.3,8.4c.6.6.6,1.5,0,2.1l-1.6,1.6c-.6.6-1.5.6-2.1,0"></path><path class="st20" d="M509.2,538.5l-7.8-8.9c-.5-.6-.5-1.6.1-2.1l1.7-1.5c.6-.5,1.6-.5,2.1.2l7.8,8.9c.5.6.5,1.6-.1,2.1l-1.7,1.5c-.6.5-1.6.5-2.1-.2"></path><path class="st20" d="M495.7,549.2l-7.2-9.4c-.5-.7-.4-1.6.3-2.1l1.8-1.3c.7-.5,1.6-.4,2.1.3l7.2,9.4c.5.7.4,1.6-.3,2.1l-1.8,1.3c-.7.5-1.6.4-2.1-.3,0,0,0,0,0,0"></path><path class="st20" d="M481.6,559.1l-6.5-9.8c-.5-.7-.3-1.6.4-2.1l1.8-1.2c.7-.5,1.6-.3,2.1.4l6.5,9.8c.5.7.3,1.6-.4,2.1l-1.8,1.2c-.7.5-1.6.3-2.1-.4,0,0,0,0,0,0"></path><path class="st20" d="M466.8,568.1l-5.9-10.3c-.4-.7-.1-1.6.5-2l1.9-1.1c.7-.4,1.6-.1,2,.5l5.9,10.3c.4.7.1,1.6-.6,2l-1.9,1.1c-.7.4-1.6.1-2-.5"></path><path class="st20" d="M451.4,576l-5.2-10.6c-.4-.7,0-1.6.7-2,0,0,0,0,0,0l2-1c.7-.4,1.6,0,2,.7,0,0,0,0,0,0l5.2,10.6c.4.7,0,1.6-.7,2l-2,1c-.7.4-1.6,0-2-.7,0,0,0,0,0,0"></path><path class="st20" d="M435.6,582.9l-4.5-10.9c-.3-.8,0-1.6.8-2l2-.8c.8-.3,1.6,0,2,.8l4.5,10.9c.3.8,0,1.6-.8,2,0,0,0,0,0,0l-2,.8c-.8.3-1.6,0-1.9-.8"></path><path class="st20" d="M419.3,588.8l-3.8-11.2c-.3-.8.2-1.6.9-1.9l2.1-.7c.8-.3,1.6.2,1.9.9l3.8,11.3c.3.8-.2,1.6-.9,1.9l-2.1.7c-.8.3-1.6-.2-1.9-.9"></path><path class="st20" d="M402.7,593.6l-3-11.4c-.2-.8.3-1.6,1.1-1.8l2.1-.6c.8-.2,1.6.3,1.8,1,0,0,0,0,0,0l3,11.4c.2.8-.3,1.6-1.1,1.8l-2.1.6c-.8.2-1.6-.3-1.8-1.1"></path><path class="st20" d="M385.9,597.3l-2.3-11.6c-.1-.8.4-1.6,1.2-1.8l2.2-.4c.8-.2,1.6.4,1.8,1.2l2.3,11.6c.1.8-.4,1.6-1.2,1.8l-2.2.4c-.8.2-1.6-.4-1.7-1.2,0,0,0,0,0,0"></path><path class="st20" d="M368.8,599.9l-1.5-11.7c0-.8.5-1.6,1.3-1.7l2.2-.3c.8-.1,1.6.5,1.7,1.3l1.5,11.7c.1.8-.5,1.6-1.3,1.7h0s-2.2.3-2.2.3c-.8.1-1.6-.5-1.7-1.3"></path><path class="st20" d="M351.6,601.3l-.7-11.8c0-.8.6-1.5,1.4-1.6h2.2c.8-.2,1.5.4,1.6,1.3l.7,11.8c0,.8-.6,1.5-1.4,1.6h-2.2c-.8.2-1.5-.4-1.6-1.3"></path><path class="st20" d="M334.3,601.7v-11.8c0-.8.7-1.5,1.5-1.5,0,0,0,0,0,0h2.2c.8,0,1.5.7,1.5,1.5,0,0,0,0,0,0v11.8c0,.8-.7,1.5-1.5,1.5h-2.2c-.8,0-1.5-.7-1.5-1.5"></path><path class="st20" d="M317,600.9l.8-11.8c0-.8.8-1.4,1.6-1.4l2.2.2c.8,0,1.4.8,1.4,1.6,0,0,0,0,0,0l-.8,11.8c0,.8-.8,1.4-1.6,1.4l-2.2-.2c-.8,0-1.4-.8-1.4-1.6"></path><path class="st20" d="M299.8,598.9l1.6-11.7c.1-.8.9-1.4,1.7-1.3l2.2.3c.8.1,1.4.9,1.3,1.7l-1.6,11.7c-.1.8-.9,1.4-1.7,1.3l-2.2-.3c-.8-.1-1.4-.9-1.3-1.7"></path><path class="st20" d="M282.8,595.9l2.4-11.6c.2-.8.9-1.3,1.7-1.2,0,0,0,0,0,0l2.2.4c.8.2,1.3,1,1.2,1.8,0,0,0,0,0,0l-2.4,11.6c-.2.8-1,1.3-1.8,1.2l-2.2-.4c-.8-.2-1.3-.9-1.2-1.8,0,0,0,0,0,0"></path><path class="st20" d="M266,591.7l3.1-11.4c.2-.8,1.1-1.2,1.8-1l2.1.6c.8.2,1.2,1.1,1,1.8l-3.1,11.4c-.2.8-1,1.3-1.8,1l-2.1-.6c-.8-.2-1.3-1-1-1.8"></path><path class="st20" d="M249.6,586.5l3.8-11.2c.3-.8,1.1-1.2,1.9-.9l2.1.7c.8.3,1.2,1.1.9,1.9l-3.8,11.2c-.3.8-1.1,1.2-1.9.9l-2.1-.7c-.8-.3-1.2-1.1-.9-1.9,0,0,0,0,0,0"></path><path class="st20" d="M233.5,580.2l4.6-10.9c.3-.8,1.2-1.1,1.9-.8,0,0,0,0,0,0l2,.8c.8.3,1.1,1.2.8,2,0,0,0,0,0,0l-4.5,10.9c-.3.8-1.2,1.1-2,.8l-2-.9c-.8-.3-1.1-1.2-.8-1.9,0,0,0,0,0,0"></path><path class="st20" d="M217.9,572.8l5.2-10.6c.4-.7,1.3-1,2-.7l2,1c.7.4,1,1.3.7,2l-5.3,10.6c-.4.7-1.3,1-2,.7,0,0,0,0,0,0l-2-1c-.7-.4-1-1.3-.7-2"></path><path class="st20" d="M202.7,564.4l6-10.2c.4-.7,1.3-.9,2-.5l1.9,1.1c.7.4.9,1.3.5,2l-6,10.2c-.4.7-1.3.9-2,.5l-1.9-1.1c-.7-.4-.9-1.3-.5-2"></path><path class="st20" d="M188.2,555.1l6.6-9.8c.5-.7,1.4-.9,2.1-.4,0,0,0,0,0,0l1.8,1.2c.7.5.9,1.4.4,2.1l-6.6,9.8c-.5.7-1.4.9-2.1.4,0,0,0,0,0,0l-1.8-1.2c-.7-.5-.9-1.4-.4-2.1,0,0,0,0,0,0"></path><path class="st20" d="M174.3,544.8l7.2-9.3c.5-.7,1.4-.8,2.1-.3,0,0,0,0,0,0l1.8,1.3c.6.5.8,1.4.3,2.1l-7.2,9.3c-.5.7-1.4.8-2.1.3,0,0,0,0,0,0l-1.8-1.4c-.6-.5-.8-1.4-.3-2.1,0,0,0,0,0,0"></path><path class="st20" d="M161.1,533.7l7.8-8.8c.5-.6,1.5-.7,2.1-.1l1.7,1.5c.6.6.7,1.5.1,2.1l-7.8,8.8c-.6.6-1.5.6-2.1,0l-1.6-1.5c-.6-.5-.7-1.5-.1-2.1,0,0,0,0,0,0"></path><path class="st20" d="M148.7,521.7l8.4-8.3c.6-.6,1.5-.6,2.1,0,0,0,0,0,0,0l1.6,1.6c.6.6.6,1.5,0,2.1l-8.4,8.3c-.6.6-1.5.6-2.1,0l-1.6-1.6c-.6-.6-.6-1.5,0-2.1"></path><path class="st20" d="M137,508.9l8.9-7.8c.6-.5,1.6-.5,2.1.2l1.5,1.7c.5.6.5,1.6-.1,2.1l-8.9,7.8c-.6.5-1.6.5-2.1-.2l-1.4-1.7c-.5-.6-.5-1.6.1-2.1"></path><path class="st20" d="M126.3,495.4l9.4-7.2c.7-.5,1.6-.4,2.1.3l1.3,1.8c.5.7.4,1.6-.3,2.1l-9.4,7.1c-.7.5-1.6.4-2.1-.3l-1.3-1.8c-.5-.7-.4-1.6.3-2.1"></path><path class="st20" d="M116.4,481.2l9.9-6.5c.7-.4,1.6-.3,2.1.4l1.2,1.8c.5.7.3,1.6-.4,2.1,0,0,0,0,0,0l-9.9,6.5c-.7.4-1.6.3-2.1-.4l-1.2-1.9c-.4-.7-.3-1.6.4-2.1"></path><path class="st20" d="M107.5,466.3l10.3-5.9c.7-.4,1.6-.1,2,.6l1.1,1.9c.4.7.1,1.6-.6,2l-10.3,5.8c-.7.4-1.6.1-2-.5l-1.1-1.9c-.4-.7-.1-1.6.6-2"></path><path class="st20" d="M99.6,451l10.6-5.2c.7-.4,1.6,0,2,.7l1,2c.4.7,0,1.6-.7,2l-10.6,5.2c-.7.4-1.6,0-2-.7,0,0,0,0,0,0l-1-2c-.4-.7,0-1.6.7-2,0,0,0,0,0,0"></path><path class="st20" d="M92.7,435.2l11-4.5c.8-.3,1.6,0,1.9.8l.8,2c.3.8,0,1.6-.8,1.9l-10.9,4.5c-.8.3-1.6,0-2-.8l-.8-2c-.3-.8,0-1.6.8-1.9"></path><path class="st20" d="M86.9,418.9l11.2-3.7c.8-.3,1.6.2,1.9.9,0,0,0,0,0,0l.7,2.1c.3.8-.2,1.6-.9,1.9,0,0,0,0,0,0l-11.2,3.7c-.8.3-1.6-.2-1.9-.9l-.7-2.1c-.3-.8.2-1.6.9-1.9"></path><path class="st20" d="M82.1,402.3l11.4-3c.8-.2,1.6.3,1.8,1.1l.6,2.1c.2.8-.2,1.6-1,1.8l-11.4,3c-.8.2-1.6-.2-1.8-1,0,0,0,0,0,0l-.6-2.1c-.2-.8.3-1.6,1.1-1.8"></path><path class="st20" d="M78.4,385.4l11.6-2.2c.8-.2,1.6.4,1.8,1.2l.4,2.2c.2.8-.4,1.6-1.2,1.7,0,0,0,0,0,0l-11.6,2.2c-.8.2-1.6-.4-1.7-1.2,0,0,0,0,0,0l-.4-2.2c-.2-.8.4-1.6,1.2-1.7,0,0,0,0,0,0"></path><path class="st20" d="M75.9,368.3l11.7-1.5c.8,0,1.6.5,1.7,1.3,0,0,0,0,0,0l.3,2.2c.1.8-.5,1.6-1.3,1.7l-11.7,1.5c-.8,0-1.5-.5-1.7-1.2l-.3-2.2c-.1-.8.5-1.6,1.3-1.7"></path><path class="st20" d="M74.4,351.1l11.8-.7c.8,0,1.5.6,1.6,1.4,0,0,0,0,0,0v2.2c.2.8-.4,1.5-1.3,1.6l-11.8.7c-.8,0-1.5-.6-1.6-1.4v-2.2c-.2-.8.4-1.5,1.3-1.6"></path><path class="st20" d="M74.1,333.8h11.8c.8,0,1.5.7,1.5,1.6h0v2.2c0,.8-.7,1.5-1.5,1.5h-11.8c-.8,0-1.5-.7-1.5-1.6h0v-2.2c0-.8.7-1.5,1.5-1.5"></path><path class="st20" d="M75,316.5l11.8.8c.8,0,1.4.8,1.4,1.6l-.2,2.2c0,.8-.8,1.4-1.6,1.4l-11.8-.9c-.8,0-1.4-.8-1.4-1.6v-2.2c.2-.8.9-1.4,1.8-1.4"></path><path class="st20" d="M76.9,299.4l11.7,1.6c.8.1,1.4.9,1.3,1.7l-.3,2.2c-.1.8-.9,1.4-1.7,1.3l-11.7-1.6c-.8-.1-1.4-.9-1.3-1.7l.3-2.2c.1-.8.9-1.4,1.7-1.3"></path><path class="st20" d="M80,282.4l11.6,2.4c.8.2,1.3.9,1.2,1.7,0,0,0,0,0,0l-.4,2.2c-.2.8-1,1.3-1.8,1.2l-11.6-2.4c-.8-.2-1.3-.9-1.2-1.7,0,0,0,0,0,0l.4-2.2c.2-.8,1-1.3,1.8-1.2"></path><path class="st20" d="M84.2,265.6l11.4,3.1c.8.2,1.2,1,1,1.8l-.6,2.1c-.2.8-1,1.3-1.8,1.1,0,0,0,0,0,0l-11.3-3.1c-.8-.2-1.2-1.1-1-1.8l.6-2.1c.2-.8,1.1-1.2,1.8-1"></path><path class="st20" d="M89.5,249.2l11.2,3.9c.8.3,1.2,1.1.9,1.9l-.7,2.1c-.3.8-1.1,1.2-1.9.9l-11.2-3.9c-.8-.3-1.2-1.1-.9-1.9,0,0,0,0,0,0l.7-2.1c.3-.8,1.1-1.2,1.9-.9,0,0,0,0,0,0"></path><path class="st20" d="M95.9,233.1l10.9,4.6c.8.3,1.1,1.2.8,1.9,0,0,0,0,0,0l-.9,2c-.3.8-1.2,1.1-1.9.8,0,0,0,0,0,0l-10.9-4.6c-.8-.3-1.1-1.2-.8-1.9,0,0,0,0,0,0l.9-2c.3-.8,1.2-1.1,2-.8,0,0,0,0,0,0"></path><path class="st20" d="M103.2,217.4l10.6,5.3c.7.4,1,1.2.7,2,0,0,0,0,0,0l-1,2c-.4.7-1.3,1-2,.7l-10.6-5.3c-.7-.4-1-1.2-.7-2,0,0,0,0,0,0l1-2c.4-.7,1.3-1,2-.7"></path><path class="st20" d="M111.6,202.3l10.2,6c.7.4.9,1.3.5,2l-1.1,1.9c-.4.7-1.3.9-2,.5l-10.2-6c-.7-.4-.9-1.3-.5-2l1.1-1.9c.4-.7,1.3-.9,2-.5"></path><path class="st20" d="M121,187.8l9.8,6.6c.7.5.9,1.4.4,2.1,0,0,0,0,0,0l-1.3,1.8c-.5.7-1.4.9-2.1.4l-9.8-6.6c-.7-.5-.9-1.4-.4-2.1,0,0,0,0,0,0l1.3-1.9c.5-.7,1.4-.9,2.1-.4"></path><path class="st20" d="M131.3,173.9l9.3,7.2c.6.5.8,1.4.3,2.1l-1.4,1.7c-.5.6-1.4.8-2.1.3l-9.3-7.2c-.6-.5-.8-1.4-.3-2.1l1.4-1.7c.5-.6,1.4-.8,2.1-.3,0,0,0,0,0,0"></path><path class="st20" d="M142.5,160.8l8.8,7.9c.6.5.7,1.5.1,2.1l-1.5,1.6c-.5.6-1.5.7-2.1.1,0,0,0,0,0,0l-8.8-7.9c-.6-.5-.7-1.5-.1-2.1l1.5-1.6c.6-.6,1.5-.7,2.1-.1"></path><path class="st20" d="M154.5,148.3l8.3,8.4c.6.6.6,1.5,0,2.1l-1.6,1.5c-.6.6-1.5.6-2.1,0l-8.3-8.4c-.6-.6-.6-1.5,0-2.1h0s1.6-1.6,1.6-1.6c.6-.6,1.5-.6,2.1,0"></path><path class="st20" d="M167.3,136.7l7.7,8.9c.5.6.5,1.6-.1,2.1l-1.7,1.4c-.6.5-1.6.5-2.1-.1l-7.7-8.9c-.5-.6-.5-1.6.1-2.1l1.7-1.4c.6-.5,1.6-.5,2.1.1"></path><path class="st20" d="M180.9,126l7.1,9.4c.5.7.4,1.6-.3,2.1,0,0,0,0,0,0l-1.8,1.3c-.7.5-1.6.4-2.1-.3,0,0,0,0,0,0l-7.1-9.4c-.5-.7-.4-1.6.3-2.1,0,0,0,0,0,0l1.8-1.3c.7-.5,1.6-.4,2.1.3"></path><path class="st20" d="M195.1,116.2l6.5,9.9c.4.7.3,1.6-.4,2.1l-1.9,1.2c-.7.5-1.6.3-2.1-.4l-6.5-9.9c-.4-.7-.3-1.6.4-2.1l1.9-1.2c.7-.5,1.6-.3,2.1.4"></path><path class="st20" d="M209.9,107.3l5.8,10.3c.4.7.1,1.6-.6,2l-1.9,1.1c-.7.4-1.6.1-2-.6l-5.8-10.3c-.4-.7-.1-1.6.6-2l1.9-1.1c.7-.4,1.6-.1,2,.6"></path><path class="st20" d="M225.3,99.4l5.1,10.6c.4.7,0,1.6-.7,2l-2,1c-.7.4-1.6,0-2-.7l-5.1-10.6c-.4-.7,0-1.6.7-2,0,0,0,0,0,0l2-1c.7-.4,1.6,0,2,.7"></path><path class="st20" d="M241.1,92.5l4.5,11c.3.8,0,1.6-.8,1.9l-2.1.8c-.8.3-1.6,0-1.9-.8l-4.4-11c-.3-.8,0-1.6.8-1.9l2-.8c.8-.3,1.6,0,1.9.8"></path><path class="st20" d="M257.4,86.7l3.7,11.2c.3.8-.2,1.6-1,1.9l-2.1.7c-.8.3-1.6-.2-1.9-.9,0,0,0,0,0,0l-3.7-11.2c-.3-.8.2-1.6,1-1.9,0,0,0,0,0,0l2.1-.7c.8-.3,1.6.2,1.9.9,0,0,0,0,0,0"></path><path class="st20" d="M274,82l3,11.4c.2.8-.3,1.6-1.1,1.8,0,0,0,0,0,0l-2.1.6c-.8.2-1.6-.3-1.8-1.1,0,0,0,0,0,0l-3-11.4c-.2-.8.3-1.6,1.1-1.8,0,0,0,0,0,0l2.1-.6c.8-.2,1.6.3,1.8,1.1"></path><path class="st20" d="M290.9,78.4l2.2,11.6c.1.8-.4,1.6-1.2,1.8l-2.2.4c-.8.2-1.6-.4-1.8-1.2l-2.2-11.6c-.2-.8.4-1.6,1.2-1.8l2.2-.4c.8-.2,1.6.4,1.7,1.2,0,0,0,0,0,0"></path><path class="st20" d="M308,75.9l1.5,11.7c.1.8-.5,1.6-1.3,1.7l-2.2.3c-.8,0-1.6-.5-1.7-1.3,0,0,0,0,0,0l-1.5-11.7c0-.8.5-1.6,1.3-1.7,0,0,0,0,0,0l2.2-.3c.8-.1,1.6.5,1.7,1.3,0,0,0,0,0,0"></path><path class="st20" d="M325.3,74.5l.7,11.8c0,.8-.6,1.5-1.4,1.6h-2.2c-.8.2-1.5-.5-1.6-1.3l-.7-11.8c0-.8.6-1.5,1.4-1.6h2.2c.8-.2,1.5.5,1.6,1.3"></path></g></g><g class="st3"><rect class="st39" x="72.9" y="92.2" width="527.1" height="519.9" transform="translate(-147.1 293.9) rotate(-39.4)"></rect></g><g class="st31"><rect class="st43" x="202.8" y="97.8" width="216.6" height="214.6" transform="translate(-59.5 244.3) rotate(-39.4)"></rect></g><g class="st12"><rect class="st48" x="448.1" y="373.4" width="117.6" height="121.9" transform="translate(-160.4 420.8) rotate(-39.4)"></rect></g><g class="st13"><rect class="st36" x="354.1" y="133.5" width="92.7" height="103.4" transform="translate(-26.5 296.5) rotate(-39.4)"></rect></g><g class="st22"><rect class="st23" x="382.8" y="489.3" width="67.4" height="65.7" transform="translate(-236.8 383.3) rotate(-39.4)"></rect></g><g class="st37"><rect class="st16" x="367.3" y="292.8" width="70.5" height="67.2" transform="translate(-115.7 332.7) rotate(-39.7)"></rect></g><g class="st51"><rect class="st8" x="481.6" y="298.2" width="66.8" height="64" transform="translate(-92.5 402.2) rotate(-39.4)"></rect></g><g class="st40"><rect class="st24" x="315.6" y="219.1" width="67.7" height="65.6" transform="translate(-80.4 279.3) rotate(-39.4)"></rect></g><g class="st5"><rect class="st33" x="248.3" y="306.1" width="98.8" height="98.1" transform="translate(-157.8 269.9) rotate(-39.4)"></rect></g><g class="st49"><rect class="st52" x="225.3" y="142.7" width="74.7" height="84.4" transform="translate(-57.7 208.9) rotate(-39.4)"></rect></g><g class="st4"><rect class="st42" x="284.5" y="132.8" width="47.7" height="47.6" transform="translate(-29.3 231.5) rotate(-39.4)"></rect></g><g class="st6"><rect class="st46" x="316.5" y="345.7" width="44" height="44.1" transform="translate(-156.6 298.7) rotate(-39.4)"></rect></g><g class="st41"><rect class="st26" x="223.3" y="321.1" width="63" height="69.8" transform="translate(-168.1 242.9) rotate(-39.4)"></rect></g><g class="st30"><rect class="st47" x="182" y="154.3" width="71.8" height="70.9" transform="translate(-70.9 181.6) rotate(-39.4)"></rect></g><g class="st1"><rect class="st17" x="333.6" y="134.4" width="40.3" height="39.9" transform="translate(-17.5 259.8) rotate(-39.4)"></rect></g><g class="st9"><rect class="st32" x="303.9" y="426.2" width="35.5" height="37.4" transform="translate(-209.4 305.5) rotate(-39.4)"></rect></g><g class="st10"><rect class="st38" x="262.9" y="434.6" width="27" height="29.5" transform="translate(-222.4 277.8) rotate(-39.4)"></rect></g><g class="st54"><rect class="st11" x="276.2" y="428.7" width="35.5" height="37.4" transform="translate(-217.3 288.5) rotate(-39.4)"></rect></g><g class="st15"><rect class="st28" x="333.7" y="428.1" width="45.8" height="47.3" transform="translate(-205.8 329.3) rotate(-39.4)"></rect></g><g class="st35"><rect class="st21" x="281.3" y="415.3" width="75.4" height="79.9" transform="translate(-216.5 306.2) rotate(-39.4)"></rect></g></g></g></svg> 